<?xml version="1.0" encoding="utf-8"?>
<!-- Generator: Adobe Illustrator 17.0.0, SVG Export Plug-In . SVG Version: 6.00 Build 0)  -->
<!DOCTYPE svg PUBLIC "-//W3C//DTD SVG 1.1//EN" "http://www.w3.org/Graphics/SVG/1.1/DTD/svg11.dtd">
<svg version="1.1" id="Capa_1" xmlns="http://www.w3.org/2000/svg" xmlns:xlink="http://www.w3.org/1999/xlink" x="0px" y="0px"
	 width="300px" height="200px" viewBox="-545.169 503.557 300 200" enable-background="new -545.169 503.557 300 200"
	 xml:space="preserve">
<g>
	<linearGradient id="SVGID_1_" gradientUnits="userSpaceOnUse" x1="-395.1685" y1="703.557" x2="-395.1685" y2="577.5486">
		<stop  offset="0" style="stop-color:#2A131A"/>
		<stop  offset="0.5675" style="stop-color:#601A23"/>
	</linearGradient>
	<polygon fill="url(#SVGID_1_)" points="-245.169,703.557 -545.169,703.557 -530.995,577.549 -256.507,580.383 	"/>
	<path fill="#601A23" d="M-459.252,598.965c21.002,2.825,34.524,0.085,39.092,0c26.494-0.497,49.651-4.471,74.818-0.889
		c10.26,1.457,89.942-9.439,93.541,0.539c-15.939-44.199-47.671-76.285-96.237-89.277c-36.25-9.699-78.717-7.106-113.748,7.12
		c-34.295,13.933-58.73,41.488-73.383,75.263C-483.799,608.413-490.589,594.75-459.252,598.965z"/>
	<path fill="#50171F" d="M-269.616,594.087c5.043,4.163,13.097,3.137,19.055,2.015c-3.266-1.921-6.278-6.529-9.112-9.292
		c1.319-0.071,14.574-1.812,14.504-1.949c-3.898-5.043-11.021-9.477-15.993-13.257c-9.79-7.437-16.159-1.741-24.064,5.417
		c-9.469,8.573-21.227,6.879-32.294,8.138c-0.362,23.651,39.779,15.007,51.266,13.186c-0.071-0.837-1.082-0.558-1.065-1.769
		c4.032-3.321,8.937-2.522,13.501-0.322c-1.423-1.954-2.75-4.107-3.744-6.425"/>
	<path fill="#40141D" d="M-329.602,561.688c-10.01,3.898-37.553,19.568-32.148,36.023c8.662,0.889,16.796-2.342,25.325-2.545
		c13.705-0.326,26.852,8.724,40.215,5.502c-0.175,0.043-0.345,0.033-0.516-0.024c0.204-4.944-2.114-9.434-1.494-14.307
		c4.864,3.567,12.469,8.138,18.631,4.126c-2.451-4.49-4.456-6.851-4.988-12.618c2.051,7.357,10.767,8.09,16.272,6.051
		c-3.416-2.583-4.739-8.947-6.024-13.228c4.169,4.249,16.164,3.217,20.386-0.885c-5.775-6.898-9.873-16.062-18.835-18.12
		c-7.98-1.831-17.532,0.563-25.383,1.907C-308.758,555.382-319.455,557.738-329.602,561.688z"/>
	<path fill="#32141C" d="M-380.123,586.991c0.545,5.412,5.488,9.604,17.428,10.953c4.676,0.53,30.942,4.703,32.485,3.369
		c5.945-5.138,0.94-18.603-3.487-22.743c2.222,8.686,10.584,20.604,18.951,14.548c9.012-6.52,2.579-20.604-2.792-27.526
		c3.403,5.223,9.598,25.515,18.448,18.556c3.832-3.014,1.452-11.194,1.502-15.551c4.589,1.907,8.225,2.512,13.205,2.895
		c-0.283-3.969-2.417-9.987-4.631-13.162c3.744,0.861,6.079,4.395,9.969,5.166c1.648,0.326,3.665-0.047,5.35-0.028
		c1.481,0.014-2.629-14.51-3.208-15.461c-2.421-3.998-7.177-7.352-11.346-8.313c-7.98-1.831-17.532,0.563-25.387,1.907
		c-10.593,1.812-21.293,4.168-31.437,8.119C-358.663,555.022-381.4,574.344-380.123,586.991z"/>
	<path fill="#2A131A" d="M-329.223,525.599c-10.593,1.812-21.293,4.168-31.441,8.119c-14.229,5.54-31.661,17.865-33.517,37.064
		c-0.325,3.364,0.245,6.392-0.358,9.566c-0.516,2.72-2.138,3.709-1.764,7.059c0.533,4.745,4.464,10.423,8.5,11.766
		c11.375,3.794,7.381-7.688,5.043-14.917c0.911,4.05,4.639,16.266,9.544,14.373c3.387-1.31,3.441-13.607,1.202-15.433
		c3.728,3.042,10.351,10.598,14.886,11.109c2.438,0.274,0.911-16.796,0.932-18.324c2.496,4.291,6.644,9.524,10.855,11.738
		c0.974-3.932,1.618-8.228,1.789-12.282c1.531,0.563,15.635,3.085,15.589,3.662c0.399-4.901,0.175-9.741,0.204-14.648
		c4.477-0.085,8.562,3.397,12.848,5.053c1.057,0.407,2.126,0.705,3.216,0.809c0.079-3.113,1.98-15.627-1.294-17.132
		c5.117,2.351,11.866,4.159,16.426,7.797c-1.281-6.259-2.5-11.355-2.559-17.723c5.97,3.842,10.913,9.174,17.948,10.427
		c0.1-12.982-5.658-23.49-15.876-28.605C-307.21,520.002-318.714,523.801-329.223,525.599z"/>
	<path fill="#651E2B" d="M-527.684,578.82c1.298-0.544,6.349-13.441,7.489-15.84c-1.673,0.132-3.274,0.828-4.602,2.006
		c1.831-3.865,4.839-6.16,8.446-7.622c4.418-1.793,9.265,1.216,12.918,3.818c4.136,2.948,6.503,4.968,11.321,6.16
		c9.519,2.351,19.084,5.242,27.979,9.671c5.708,2.843,10.963,6.889,16.06,10.886c1.997,1.566,8.042,7.489,4.144,9.576
		c-0.27,0.142-0.587,0.27-0.953,0.374c-2.055,0.582-3.52-1.793-4.818-2.124c-2.326-0.601-8.571,1.613-7.972-3.274
		c-1.157,0.336-2.109,1.382-2.929,2.597c0.72-0.823,1.706-1.14,2.517-1.698c-0.054,1.462-0.77,3.279-0.774,4.736
		c1.951-2.318,3.898-4.651,5.879-6.931c-1.073,0.889-2.034,2.011-2.65,3.312c-1.802,0.123-3.591-0.194-5.359-0.166
		c-3.403,0.062-5.038,2.508-8.687,4.021c-0.133-0.407-0.046-0.667-0.146-1.027c-3.033,2.101-6.919,6.742-10.618,6.221
		c0.32-3.388,2.176-6.647,2.034-9.907c-2.534,1.188-5.371,1.949-7.227,4.409c0.379-4.4,3.516-7.982,4.352-12.159
		c-3.969,2.952-7.069,9.003-11.641,10.456c0.999-3.274,3.1-5.994,3.778-9.424c-2.842,1.164-5.001,5.02-7.531,6.917
		c1.023-2.777,2.471-5.341,3.358-8.175c-4.414,3.203-7.489,8.488-11.803,11.913c0.558-3.728,3.416-6.983,4.668-10.394
		c-2.821,2.735-5.821,6.018-9.399,7.31c-0.537-3.212,2.575-7.362,3.69-10.498c-2.604,2.782-5.371,6.955-8.363,8.526
		c2.987-5.729,6.827-10.82,10.451-16.024c-4.314,4.012-7.755,10.21-12.814,13.053c2.571-5.531,6.815-10.139,9.902-15.339
		c-2.005,2.394-4.593,4.764-7.339,5.852c0.562-2.096,1.885-3.577,2.75-5.507c-5.084,3.865-8.995,9.249-13.73,13.564
		c1.365-5.256,5.812-9.434,7.913-14.402c-1.34,1.254-2.646,2.72-4.335,3.217c0.653-1.646,1.531-3.231,2.168-4.878
		c-3.557,4.026-6.865,8.332-10.168,12.623c2.842-5.994,7.26-11.341,11.167-16.474C-520.511,571.832-524.151,577.344-527.684,578.82z
		"/>
	<path fill="#601A23" d="M-422.523,590.118c-0.686,2.418-2.155,4.674-4.606,6.657c-6.17,4.996-31.345-9.103-31.612,6.77
		c0.033-2.082,0.994-3.965,1.81-5.758c-0.84,0.833-1.806,1.538-2.854,1.954c0.349-0.506,0.649-1.329,1.073-1.84
		c-1.602,1.074-3.091,2.772-4.901,3.378c0.949-2.825,2.862-5.119,4.181-7.75c-2.026,1.888-4.119,5.185-6.686,5.9
		c1.015-1.94,2.188-3.828,3.441-5.592c-2.38,3.009-5.35,6.889-8.783,8.218c-0.612-3.184,4.406-9.254,5.729-11.601
		c-1.656,1.197-2.996,3.037-4.768,4.007c0.541-1.008,1.169-1.94,1.885-2.801c-1.136,1.069-2.326,2.077-3.52,3.061
		c1.689-3.586,4.327-6.756,5.517-10.584c-3.291,3.373-8.234,11.099-13.052,11.378c0.237-1.968,2.122-6.032,3.557-7.229
		c-1.435,1.197-2.463,2.9-4.427,2.47c0.108-2.862,2.034-5.621,3.22-7.991c0.029,0.251,0.05,0.497,0.062,0.752
		c0.89-2.801,1.423-5.162,2.688-7.679c-3.291,2.403-5.758,6.572-9.224,8.644c0.092-2.138,1.464-3.875,2.001-5.876
		c-0.782,0.535-1.552,1.183-2.305,1.675c0.262-1.069,0.811-2.006,1.269-3.009c-0.374,0.199-0.895,0.237-1.182,0.364
		c0.62-1.826,1.968-3.397,3.17-4.835c-2.01,2.976-5.267,6.496-8.329,7.859c1.248-3.227,3.907-5.905,5.658-8.757
		c-3.233,3.17-6.128,7.362-9.844,9.756c1.606-4.253,4.735-8.133,7.289-11.71c-2.222,2.134-4.152,5.479-6.802,6.737
		c0.861-3.539,3.083-6.486,4.481-9.756c-2.858,1.855-5.65,7.39-8.72,8.123c1.302-3.364,3.682-6.037,5.08-9.325
		c-2.438,1.997-4.855,4.646-6.495,7.504c2.105-2.858,4.618-5.8,6.232-9.013c-2.23,1.325-3.724,3.293-5.679,4.972
		c-1.485,1.273-3.083,1.836-4.265,3.596c-0.258-0.994-0.653-4.064,0.487-4.689c-1.094,0.601-2.292,1.031-3.524,0.946
		c0.291-3.203,3.449-6.046,4.855-8.649c-2.159,1.637-3.944,3.837-5.958,5.687c0.807-2.403,3.162-4.32,4.115-6.822
		c-3.574,1.855-6.415,5.635-10.064,7.135c1.81-3.671,6.761-7.939,6.827-11.927c-3.653,2.711-6.761,6.515-10.701,8.677
		c1.41-3.733,4.78-6.543,6.798-9.912c-2.513,1.897-4.518,4.939-7.36,6.174c0.637-2.853,3.137-5.928,4.905-8.067
		c-1.677,1.443-3.254,3.052-4.939,4.49c1.265-2.862,3.528-5.133,5.043-7.849c-1.519,0.833-2.796,2.134-4.306,2.948
		c2.912-5.535,9.361-11.123,15.028-12.159c7.501-1.367,16.005,1.5,23.066,3.241c9.519,2.351,19.084,5.242,27.979,9.671
		C-441.528,555.897-418.466,575.858-422.523,590.118z"/>
	<path fill="#651E2B" d="M-462.597,531.097c9.519,2.351,19.084,5.242,27.979,9.67c12.473,6.207,27.189,19.246,26.931,38.2
		c-0.062,4.537,0.815,8.885,0.795,13.38c-0.012,2.489-1.165,4.868-1.053,7.404c0.416-1.159,0.978-2.238,1.306-3.44
		c-1.227,0.956-2.089,2.649-2.946,4.102c0.416-1.59,1.473-3.056,1.997-4.684c-1.435,0.615-2.446,2.38-3.907,3.217
		c0.387-2.763,1.955-5.043,2.367-7.816c-1.806,0.61-3.191,3.979-4.464,5.734c0.911-2.375,2.297-4.542,2.763-7.12
		c-1.847,0.506-4.306,2.929-5.929,4.339c-0.965,0.837-1.377,1.017-2.076,2.068c-1.098,1.656-0.691,3.742-2.6,4.547
		c-0.662-3.392,4.102-8.005,4.914-11.421c-1.718,3.023-3.678,5.957-5.991,8.426c1.24-2.058,2.825-3.809,4.223-5.734
		c-2.979,2.976-5.221,6.851-8.288,9.694c1.115-2.787,3.083-5.138,4.048-7.996c-2.625,2.536-5.338,6.132-8.471,7.603
		c0.666-3.194,2.975-5.805,4.185-8.748c-2.005,1.429-3.64,3.837-5.937,4.551c1.598-3.179,4.056-5.711,5.596-8.918
		c-3.757,1.836-6.078,6.751-9.615,9.051c1.81-3.657,6.382-7.683,7.031-11.596c-3.865,2.29-6.981,5.318-10.335,8.436
		c0.699-2.086,1.44-4.608,1.111-6.846c-0.728-0.142-1.41,0.062-2.168,0.307c1.211-3.146,3.586-5.772,5.217-8.606
		c-2.243,2.545-4.689,4.854-6.948,7.39c1.381-2.053,3.116-3.823,4.418-5.933c-1.777,2.001-3.603,3.955-5.392,5.942
		c-2.118,2.347-5.729,7.66-8.671,9.491c3.258-6.136,7.518-11.587,11.163-17.42c-2.925,1.968-4.959,5.464-8.109,7.116
		c1.023-4.249,5.242-7.224,6.32-11.293c-3.599,3.979-6.956,8.142-10.239,12.462c1.693-2.489,3.541-4.831,5.325-7.234
		c-3.586,3.388-6.553,8.052-10.618,10.754c2.6-6.95,7.788-12.377,11.371-18.641c-6.237,3.766-11.017,10.295-16.813,14.827
		c2.442-5.218,6.823-9.24,9.607-14.274c-2.929,2.564-5.904,6.415-9.303,7.958c0.969-4.13,5.687-8.436,7.901-11.606
		c-4.036,3.629-8.242,9.372-13.056,11.35c0.387-3.723,1.236-7.456,2.771-10.683c-1.71,1.594-3.316,3.913-5.026,5.242
		c1.527-3.364,3.536-6.538,5.346-9.689c-1.398,2.247-3.586,4.764-5.475,6.434c0.753-3.198,4.19-6.723,3.649-10.12
		c-3.108,3.094-6.016,7.546-8.142,11.483c0.782-1.258,1.618-2.479,2.363-3.771c-3.582,2.574-6.624,6.548-8.733,10.716
		c1.901-3.775,3.345-8.005,4.726-12.079c-0.408,0.97-0.824,2.157-1.66,2.602c0.632-2.243,1.764-4.367,2.688-6.439
		c2.08-4.646,4.136-9.306,6.17-13.981c1.048-1.623,1.752-3.388,2.105-5.289c-3.287,4.357-7.389,9.302-9.307,14.709
		c0.94-1.604,1.951-3.851,3.457-4.769c-0.732,2.716-2.788,5.512-4.098,7.882c1.885-3.321,4.373-7.873,4.851-11.658
		c-2.08,2.304-3.674,5.171-5.23,7.934c0.89-2.205,1.831-4.504,2.205-6.907c-2.663,1.883-4.701,6.009-6.432,8.809
		c0.649-3.023,2.767-6.221,2.663-9.439c-3.649,3.619-6.357,8.724-9.191,13.124c0.57-1.505,1.315-2.938,1.989-4.391
		c1.123-2.418,4.14-6.676,4.065-9.448c-1.868,2.068-3.52,4.443-5.192,6.695c2.463-5.725,5.895-11.019,7.996-16.914
		c-3.345,2.796-5.962,8.024-8.113,11.994c1.223-2.224,4.98-7.215,4.052-9.732c-4.356,2.673-7.023,8.18-10.942,11.549
		c-0.062-1.329,1.032-2.702,1.618-3.804c2.064-3.88,4.244-7.66,6.133-11.658c-4.51,2.134-7.705,9.656-10.917,13.347
		c1.943-3.757,4.086-7.381,6.158-11.047c-2.604,3.208-5.334,6.586-7.41,10.253c1.843-3.071,3.928-6.269,5.221-9.68
		c-2.205,1.793-4.073,4.111-6.212,5.942c2.746-2.351,2.742-8.261,4.369-11.237c-0.137,0.431-0.329,1.311-0.424,1.821
		c0.366-1.065,0.865-2.034,1.248-2.99c-0.037,0.132-0.295,1.268-0.241,1.315c0.528-1.547,1.373-2.385,2.122-3.676
		c0.225-0.128,0.137,0.492,0.158,0.487c0.582-0.132,3.478-3.482,4.843-4.064c2.155-0.918,5.097-1.102,7.372-1.169
		C-475.041,527.307-468.721,529.583-462.597,531.097z"/>
	<path fill="#601A23" d="M-436.885,555.438c-2.966,5.351-6.844,9.581-9.59,15.305c1.939-4.04,4.993-9.756,5.196-14.298
		c-2.48,1.041-3.711,3.525-4.506,6.231c-0.354,1.206-0.437,2.063-1.165,3.127c-0.133,0.194-2.746,2.427-2.659,1.594
		c0.233-2.228,0.99-4.443,1.369-6.647c0.237-1.396,0.054-4.883,0.578-5.928c-1.373,2.758-2.326,8.511-4.943,9.093
		c-0.404-4.916,3.154-8.398,3.47-13.143c-3.279,2.342-4.755,8.218-7.847,11.061c0.208-5.616,3.807-10.82,4.327-16.545
		c-3.462,3.643-4.323,9.732-8.691,12.538c1.635-4.935,6.203-11.246,6.199-16.493c-4.473,0.274-6.998,9.306-9.665,12.476
		c1.589-5.64,5.388-11.047,5.754-16.942c-2.322,3.558-4.543,10.461-8.529,11.525c3.303-5.389,5.983-11.733,7.876-17.917
		c-3.52,4.57-5.758,12.462-11.125,14.629c3.195-4.424,5.217-10.394,6.594-15.821c-3.853,4.708-7.855,9.935-12.34,13.919
		c1.56-5.602,6.49-11.421,9.299-16.436c-3.416,3.969-6.224,8.984-11.246,10.328c0.503-5.526,9.003-10.645,6.59-14.809
		c-3.308,3.69-6.278,8.251-9.706,11.776c2.059-3.506,4.223-7.437,6.278-10.702c-2.9,2.28-5.725,5.034-8.974,6.68
		c1.273-3.146,3.861-5.384,5.375-8.398c-1.81,1.429-3.237,3.87-5.513,4.13c2.946-6.051,8.591-11.672,14.737-12.793
		c7.501-1.367,16.01,1.5,23.066,3.241c9.519,2.351,19.084,5.242,27.979,9.671c12.473,6.207,27.189,19.246,26.931,38.199
		c-0.062,4.684,1.722,15.225-1.323,18.191c-3.928,3.832-9.536,0.97-12.873,7.319c0.191-1.348-0.329-2.924-0.25-4.206
		c-0.84,0.625-3.952,2.772-4.173,4.031c0.212-1.211,0.017-2.498,0.196-3.709c-1.186,2.247-2.488,4.428-3.47,6.799
		c1.702-3.965,3.27-8.852,2.667-13.209c-1.385,2.702-2.933,5.389-4.843,7.636c1.127-4.982,3.133-9.902,2.596-15.144
		c-2.28,3.757-4.289,7.735-6.753,11.355c0.861-2.12,1.689-4.372,1.926-6.704c-1.976,3.482-3.848,7.106-6.037,10.418
		c1.519-7.314,5.28-14.236,5.729-21.943c-3.674,4.755-5.95,11.128-8.479,16.701c0.736-2.981,2.255-5.588,2.9-8.606
		c-1.51,2.593-3.898,6.756-4.88,8.923c2.388-7.518,6.345-16.408,6.311-24.408c-5.508,6.732-9.977,14.932-13.979,22.904
		c1.394-5.502,3.491-10.744,4.252-16.445c-1.889,3.288-4.231,6.439-5.072,10.276c1.078-3.43,2.733-7.816,2.384-11.203
		c0.079,0.752-1.668,1.727-2.047,2.276c-0.757,1.098-1.136,2.512-1.602,3.794c-0.008-0.904,0.275-1.741,0.279-2.64
		c-1.011,1.76-2.188,4.499-3.753,5.63C-441.703,566.538-439.481,560.122-436.885,555.438z"/>
	<path fill="none" d="M-399.124,588.992c4.248,6.136,12.273,9.424,18.885,9.51c0.25-4.84-1.302-9.42-4.265-12.945
		c4.884,1.959,10.564,3.104,15.876,2.266c1.685-7.338-4.306-15.57-10.414-17.586c7.356,0.535,13.622,7.059,20.782,2.219
		c-1.44-5.502-6.253-8.757-11.379-9.548c3.511,0.08,29.057,1.703,15.435-10.049c2.9,1.987,6.52,2.81,9.544,4.547
		c-0.774-2.096-1.107-5.536-2.75-8.138c5.359,3.676,11.529,17.529,19.159,11.643c4.435-3.421,4.09-10.801,0.986-13.886
		c1.664,1.722,4.269,2.408,5.879,3.951c0.216-0.137-0.175-2.243,0.191-2.2c8.254,2.191,17.507-13.295,13.838-21.039"/>
</g>
</svg>
