<?xml version="1.0" encoding="utf-8"?>
<!-- Generator: Adobe Illustrator 17.0.0, SVG Export Plug-In . SVG Version: 6.00 Build 0)  -->
<!DOCTYPE svg PUBLIC "-//W3C//DTD SVG 1.1//EN" "http://www.w3.org/Graphics/SVG/1.1/DTD/svg11.dtd">
<svg version="1.1" id="Capa_1" xmlns="http://www.w3.org/2000/svg" xmlns:xlink="http://www.w3.org/1999/xlink" x="0px" y="0px"
	 width="348.663px" height="106.114px" viewBox="0 0 348.663 106.114" enable-background="new 0 0 348.663 106.114"
	 xml:space="preserve">
<g>
	<path fill="#601A23" d="M91.383,101.261c25.24,2.985,41.49,0.09,46.98,0c31.84-0.525,59.67-4.725,89.915-0.94
		c12.33,1.54,108.09-9.975,112.415,0.57c-19.155-46.71-57.29-80.62-115.655-94.35c-43.565-10.25-94.6-7.51-136.7,7.525
		c-41.215,14.725-70.58,43.845-88.19,79.54C61.883,111.246,53.723,96.806,91.383,101.261z"/>
	<path fill="#50171F" d="M319.283,96.106c6.06,4.4,15.74,3.315,22.9,2.13c-3.925-2.03-7.545-6.9-10.95-9.82
		c1.585-0.075,17.515-1.915,17.43-2.06c-4.685-5.33-13.245-10.015-19.22-14.01c-11.765-7.86-19.42-1.84-28.92,5.725
		c-11.38,9.06-25.51,7.27-38.81,8.6c-0.435,24.995,47.805,15.86,61.61,13.935c-0.085-0.885-1.3-0.59-1.28-1.87
		c4.845-3.51,10.74-2.665,16.225-0.34c-1.71-2.065-3.305-4.34-4.5-6.79"/>
	<path fill="#40141D" d="M247.193,61.866c-12.03,4.12-45.13,20.68-38.635,38.07c10.41,0.94,20.185-2.475,30.435-2.69
		c16.47-0.345,32.27,9.22,48.33,5.815c-0.21,0.045-0.415,0.035-0.62-0.025c0.245-5.225-2.54-9.97-1.795-15.12
		c5.845,3.77,14.985,8.6,22.39,4.36c-2.945-4.745-5.355-7.24-5.995-13.335c2.465,7.775,12.94,8.55,19.555,6.395
		c-4.105-2.73-5.695-9.455-7.24-13.98c5.01,4.49,19.425,3.4,24.5-0.935c-6.94-7.29-11.865-16.975-22.635-19.15
		c-9.59-1.935-21.07,0.595-30.505,2.015C272.243,55.201,259.388,57.691,247.193,61.866z"/>
	<path fill="#32141C" d="M186.478,88.606c0.655,5.72,6.595,10.15,20.945,11.575c5.62,0.56,37.185,4.97,39.04,3.56
		c7.145-5.43,1.13-19.66-4.19-24.035c2.67,9.18,12.72,21.775,22.775,15.375c10.83-6.89,3.1-21.775-3.355-29.09
		c4.09,5.52,11.535,26.965,22.17,19.61c4.605-3.185,1.745-11.83,1.805-16.435c5.515,2.015,9.885,2.655,15.87,3.06
		c-0.34-4.195-2.905-10.555-5.565-13.91c4.5,0.91,7.305,4.645,11.98,5.46c1.98,0.345,4.405-0.05,6.43-0.03
		c1.78,0.015-3.16-15.335-3.855-16.34c-2.91-4.225-8.625-7.77-13.635-8.785c-9.59-1.935-21.07,0.595-30.51,2.015
		c-12.73,1.915-25.59,4.405-37.78,8.58C212.268,54.821,184.943,75.241,186.478,88.606z"/>
	<path fill="#2A131A" d="M247.648,23.726c-12.73,1.915-25.59,4.405-37.785,8.58c-17.1,5.855-38.05,18.88-40.28,39.17
		c-0.39,3.555,0.295,6.755-0.43,10.11c-0.62,2.875-2.57,3.92-2.12,7.46c0.64,5.015,5.365,11.015,10.215,12.435
		c13.67,4.01,8.87-8.125,6.06-15.765c1.095,4.28,5.575,17.19,11.47,15.19c4.07-1.385,4.135-14.38,1.445-16.31
		c4.48,3.215,12.44,11.2,17.89,11.74c2.93,0.29,1.095-17.75,1.12-19.365c3,4.535,7.985,10.065,13.045,12.405
		c1.17-4.155,1.945-8.695,2.15-12.98c1.84,0.595,18.79,3.26,18.735,3.87c0.48-5.18,0.21-10.295,0.245-15.48
		c5.38-0.09,10.29,3.59,15.44,5.34c1.27,0.43,2.555,0.745,3.865,0.855c0.095-3.29,2.38-16.515-1.555-18.105
		c6.15,2.485,14.26,4.395,19.74,8.24c-1.54-6.615-3.005-12-3.075-18.73c7.175,4.06,13.115,9.695,21.57,11.02
		c0.12-13.72-6.8-24.825-19.08-30.23C274.103,17.811,260.278,21.826,247.648,23.726z"/>
	<path fill="#651E2B" d="M9.143,79.971c1.56-0.575,7.63-14.205,9-16.74c-2.01,0.14-3.935,0.875-5.53,2.12
		c2.2-4.085,5.815-6.51,10.15-8.055c5.31-1.895,11.135,1.285,15.525,4.035c4.97,3.115,7.815,5.25,13.605,6.51
		c11.44,2.485,22.935,5.54,33.625,10.22c6.86,3.005,13.175,7.28,19.3,11.505c2.4,1.655,9.665,7.915,4.98,10.12
		c-0.325,0.15-0.705,0.285-1.145,0.395c-2.47,0.615-4.23-1.895-5.79-2.245c-2.795-0.635-10.3,1.705-9.58-3.46
		c-1.39,0.355-2.535,1.46-3.52,2.745c0.865-0.87,2.05-1.205,3.025-1.795c-0.065,1.545-0.925,3.465-0.93,5.005
		c2.345-2.45,4.685-4.915,7.065-7.325c-1.29,0.94-2.445,2.125-3.185,3.5c-2.165,0.13-4.315-0.205-6.44-0.175
		c-4.09,0.065-6.055,2.65-10.44,4.25c-0.16-0.43-0.055-0.705-0.175-1.085c-3.645,2.22-8.315,7.125-12.76,6.575
		c0.385-3.58,2.615-7.025,2.445-10.47c-3.045,1.255-6.455,2.06-8.685,4.66c0.455-4.65,4.225-8.435,5.23-12.85
		c-4.77,3.12-8.495,9.515-13.99,11.05c1.2-3.46,3.725-6.335,4.54-9.96c-3.415,1.23-6.01,5.305-9.05,7.31
		c1.23-2.935,2.97-5.645,4.035-8.64c-5.305,3.385-9,8.97-14.185,12.59c0.67-3.94,4.105-7.38,5.61-10.985
		c-3.39,2.89-6.995,6.36-11.295,7.725c-0.645-3.395,3.095-7.78,4.435-11.095c-3.13,2.94-6.455,7.35-10.05,9.01
		c3.59-6.055,8.205-11.435,12.56-16.935c-5.185,4.24-9.32,10.79-15.4,13.795c3.09-5.845,8.19-10.715,11.9-16.21
		c-2.41,2.53-5.52,5.035-8.82,6.185c0.675-2.215,2.265-3.78,3.305-5.82c-6.11,4.085-10.81,9.775-16.5,14.335
		c1.64-5.555,6.985-9.97,9.51-15.22c-1.61,1.325-3.18,2.875-5.21,3.4c0.785-1.74,1.84-3.415,2.605-5.155
		c-4.275,4.255-8.25,8.805-12.22,13.34c3.415-6.335,8.725-11.985,13.42-17.41C17.763,72.586,13.388,78.411,9.143,79.971z"/>
	<path fill="#601A23" d="M135.523,91.911c-0.825,2.555-2.59,4.94-5.535,7.035c-7.415,5.28-37.67-9.62-37.99,7.155
		c0.04-2.2,1.195-4.19,2.175-6.085c-1.01,0.88-2.17,1.625-3.43,2.065c0.42-0.535,0.78-1.405,1.29-1.945
		c-1.925,1.135-3.715,2.93-5.89,3.57c1.14-2.985,3.44-5.41,5.025-8.19c-2.435,1.995-4.95,5.48-8.035,6.235
		c1.22-2.05,2.63-4.045,4.135-5.91c-2.86,3.18-6.43,7.28-10.555,8.685c-0.735-3.365,5.295-9.78,6.885-12.26
		c-1.99,1.265-3.6,3.21-5.73,4.235c0.65-1.065,1.405-2.05,2.265-2.96c-1.365,1.13-2.795,2.195-4.23,3.235
		c2.03-3.79,5.2-7.14,6.63-11.185c-3.955,3.565-9.895,11.73-15.685,12.025c0.285-2.08,2.55-6.375,4.275-7.64
		c-1.725,1.265-2.96,3.065-5.32,2.61c0.13-3.025,2.445-5.94,3.87-8.445c0.035,0.265,0.06,0.525,0.075,0.795
		c1.07-2.96,1.71-5.455,3.23-8.115c-3.955,2.54-6.92,6.945-11.085,9.135c0.11-2.26,1.76-4.095,2.405-6.21
		c-0.94,0.565-1.865,1.25-2.77,1.77c0.315-1.13,0.975-2.12,1.525-3.18c-0.45,0.21-1.075,0.25-1.42,0.385
		c0.745-1.93,2.365-3.59,3.81-5.11c-2.415,3.145-6.33,6.865-10.01,8.305c1.5-3.41,4.695-6.24,6.8-9.255
		c-3.885,3.35-7.365,7.78-11.83,10.31c1.93-4.495,5.69-8.595,8.76-12.375c-2.67,2.255-4.99,5.79-8.175,7.12
		c1.035-3.74,3.705-6.855,5.385-10.31c-3.435,1.96-6.79,7.81-10.48,8.585c1.565-3.555,4.425-6.38,6.105-9.855
		c-2.93,2.11-5.835,4.91-7.805,7.93c2.53-3.02,5.55-6.13,7.49-9.525c-2.68,1.4-4.475,3.48-6.825,5.255
		c-1.785,1.345-3.705,1.94-5.125,3.8c-0.31-1.05-0.785-4.295,0.585-4.955c-1.315,0.635-2.755,1.09-4.235,1
		c0.35-3.385,4.145-6.39,5.835-9.14c-2.595,1.73-4.74,4.055-7.16,6.01c0.97-2.54,3.8-4.565,4.945-7.21
		c-4.295,1.96-7.71,5.955-12.095,7.54c2.175-3.88,8.125-8.39,8.205-12.605c-4.39,2.865-8.125,6.885-12.86,9.17
		c1.695-3.945,5.745-6.915,8.17-10.475c-3.02,2.005-5.43,5.22-8.845,6.525c0.765-3.015,3.77-6.265,5.895-8.525
		c-2.015,1.525-3.91,3.225-5.935,4.745c1.52-3.025,4.24-5.425,6.06-8.295c-1.825,0.88-3.36,2.255-5.175,3.115
		c3.5-5.85,11.25-11.755,18.06-12.85c9.015-1.445,19.235,1.585,27.72,3.425c11.44,2.485,22.935,5.54,33.625,10.22
		C112.683,55.746,140.398,76.841,135.523,91.911z"/>
	<path fill="#651E2B" d="M87.363,29.536c11.44,2.485,22.935,5.54,33.625,10.22c14.99,6.56,32.675,20.34,32.365,40.37
		c-0.075,4.795,0.98,9.39,0.955,14.14c-0.015,2.63-1.4,5.145-1.265,7.825c0.5-1.225,1.175-2.365,1.57-3.635
		c-1.475,1.01-2.51,2.8-3.54,4.335c0.5-1.68,1.77-3.23,2.4-4.95c-1.725,0.65-2.94,2.515-4.695,3.4c0.465-2.92,2.35-5.33,2.845-8.26
		c-2.17,0.645-3.835,4.205-5.365,6.06c1.095-2.51,2.76-4.8,3.32-7.525c-2.22,0.535-5.175,3.095-7.125,4.585
		c-1.16,0.885-1.655,1.075-2.495,2.185c-1.32,1.75-0.83,3.955-3.125,4.805c-0.795-3.585,4.93-8.46,5.905-12.07
		c-2.065,3.195-4.42,6.295-7.2,8.905c1.49-2.175,3.395-4.025,5.075-6.06c-3.58,3.145-6.275,7.24-9.96,10.245
		c1.34-2.945,3.705-5.43,4.865-8.45c-3.155,2.68-6.415,6.48-10.18,8.035c0.8-3.375,3.575-6.135,5.03-9.245
		c-2.41,1.51-4.375,4.055-7.135,4.81c1.92-3.36,4.875-6.035,6.725-9.425c-4.515,1.94-7.305,7.135-11.555,9.565
		c2.175-3.865,7.67-8.12,8.45-12.255c-4.645,2.42-8.39,5.62-12.42,8.915c0.84-2.205,1.73-4.87,1.335-7.235
		c-0.875-0.15-1.695,0.065-2.605,0.325c1.455-3.325,4.31-6.1,6.27-9.095c-2.695,2.69-5.635,5.13-8.35,7.81
		c1.66-2.17,3.745-4.04,5.31-6.27c-2.135,2.115-4.33,4.18-6.48,6.28c-2.545,2.48-6.885,8.095-10.42,10.03
		c3.915-6.485,9.035-12.245,13.415-18.41c-3.515,2.08-5.96,5.775-9.745,7.52c1.23-4.49,6.3-7.635,7.595-11.935
		c-4.325,4.205-8.36,8.605-12.305,13.17c2.035-2.63,4.255-5.105,6.4-7.645c-4.31,3.58-7.875,8.51-12.76,11.365
		c3.125-7.345,9.36-13.08,13.665-19.7c-7.495,3.98-13.24,10.88-20.205,15.67c2.935-5.515,8.2-9.765,11.545-15.085
		c-3.52,2.71-7.095,6.78-11.18,8.41c1.165-4.365,6.835-8.915,9.495-12.265c-4.85,3.835-9.905,9.905-15.69,11.995
		c0.465-3.935,1.485-7.88,3.33-11.29c-2.055,1.685-3.985,4.135-6.04,5.54c1.835-3.555,4.25-6.91,6.425-10.24
		c-1.68,2.375-4.31,5.035-6.58,6.8c0.905-3.38,5.035-7.105,4.385-10.695c-3.735,3.27-7.23,7.975-9.785,12.135
		c0.94-1.33,1.945-2.62,2.84-3.985c-4.305,2.72-7.96,6.92-10.495,11.325c2.285-3.99,4.02-8.46,5.68-12.765
		c-0.49,1.025-0.99,2.28-1.995,2.75c0.76-2.37,2.12-4.615,3.23-6.805c2.5-4.91,4.97-9.835,7.415-14.775
		c1.26-1.715,2.105-3.58,2.53-5.59c-3.95,4.605-8.88,9.83-11.185,15.545c1.13-1.695,2.345-4.07,4.155-5.04
		c-0.88,2.87-3.35,5.825-4.925,8.33c2.265-3.51,5.255-8.32,5.83-12.32c-2.5,2.435-4.415,5.465-6.285,8.385
		c1.07-2.33,2.2-4.76,2.65-7.3c-3.2,1.99-5.65,6.35-7.73,9.31c0.78-3.195,3.325-6.575,3.2-9.975
		c-4.385,3.825-7.64,9.22-11.045,13.87c0.685-1.59,1.58-3.105,2.39-4.64c1.35-2.555,4.975-7.055,4.885-9.985
		c-2.245,2.185-4.23,4.695-6.24,7.075c2.96-6.05,7.085-11.645,9.61-17.875c-4.02,2.955-7.165,8.48-9.75,12.675
		c1.47-2.35,5.985-7.625,4.87-10.285c-5.235,2.825-8.44,8.645-13.15,12.205c-0.075-1.405,1.24-2.855,1.945-4.02
		c2.48-4.1,5.1-8.095,7.37-12.32c-5.42,2.255-9.26,10.205-13.12,14.105c2.335-3.97,4.91-7.8,7.4-11.675
		c-3.13,3.39-6.41,6.96-8.905,10.835c2.215-3.245,4.72-6.625,6.275-10.23c-2.65,1.895-4.895,4.345-7.465,6.28
		c3.3-2.485,3.295-8.73,5.25-11.875c-0.165,0.455-0.395,1.385-0.51,1.925c0.44-1.125,1.04-2.15,1.5-3.16
		c-0.045,0.14-0.355,1.34-0.29,1.39c0.635-1.635,1.65-2.52,2.55-3.885c0.27-0.135,0.165,0.52,0.19,0.515
		c0.7-0.14,4.18-3.68,5.82-4.295c2.59-0.97,6.125-1.165,8.86-1.235C72.408,25.531,80.003,27.936,87.363,29.536z"/>
	<path fill="#601A23" d="M118.263,55.261c-3.565,5.655-8.225,10.125-11.525,16.175c2.33-4.27,6-10.31,6.245-15.11
		c-2.98,1.1-4.46,3.725-5.415,6.585c-0.425,1.275-0.525,2.18-1.4,3.305c-0.16,0.205-3.3,2.565-3.195,1.685
		c0.28-2.355,1.19-4.695,1.645-7.025c0.285-1.475,0.065-5.16,0.695-6.265c-1.65,2.915-2.795,8.995-5.94,9.61
		c-0.485-5.195,3.79-8.875,4.17-13.89c-3.94,2.475-5.715,8.685-9.43,11.69c0.25-5.935,4.575-11.435,5.2-17.485
		c-4.16,3.85-5.195,10.285-10.445,13.25c1.965-5.215,7.455-11.885,7.45-17.43c-5.375,0.29-8.41,9.835-11.615,13.185
		c1.91-5.96,6.475-11.675,6.915-17.905c-2.79,3.76-5.46,11.055-10.25,12.18c3.97-5.695,7.19-12.4,9.465-18.935
		c-4.23,4.83-6.92,13.17-13.37,15.46c3.84-4.675,6.27-10.985,7.925-16.72c-4.63,4.975-9.44,10.5-14.83,14.71
		c1.875-5.92,7.8-12.07,11.175-17.37c-4.105,4.195-7.48,9.495-13.515,10.915c0.605-5.84,10.82-11.25,7.92-15.65
		c-3.975,3.9-7.545,8.72-11.665,12.445c2.475-3.705,5.075-7.86,7.545-11.31c-3.485,2.41-6.88,5.32-10.785,7.06
		c1.53-3.325,4.64-5.69,6.46-8.875c-2.175,1.51-3.89,4.09-6.625,4.365c3.54-6.395,10.325-12.335,17.71-13.52
		c9.015-1.445,19.24,1.585,27.72,3.425c11.44,2.485,22.935,5.54,33.625,10.22c14.99,6.56,32.675,20.34,32.365,40.37
		c-0.075,4.95,2.07,16.09-1.59,19.225c-4.72,4.05-11.46,1.025-15.47,7.735c0.23-1.425-0.395-3.09-0.3-4.445
		c-1.01,0.66-4.75,2.93-5.015,4.26c0.255-1.28,0.02-2.64,0.235-3.92c-1.425,2.375-2.99,4.68-4.17,7.185
		c2.045-4.19,3.93-9.355,3.205-13.96c-1.665,2.855-3.525,5.695-5.82,8.07c1.355-5.265,3.765-10.465,3.12-16.005
		c-2.74,3.97-5.155,8.175-8.115,12c1.035-2.24,2.03-4.62,2.315-7.085c-2.375,3.68-4.625,7.51-7.255,11.01
		c1.825-7.73,6.345-15.045,6.885-23.19c-4.415,5.025-7.15,11.76-10.19,17.65c0.885-3.15,2.71-5.905,3.485-9.095
		c-1.815,2.74-4.685,7.14-5.865,9.43c2.87-7.945,7.625-17.34,7.585-25.795c-6.62,7.115-11.99,15.78-16.8,24.205
		c1.675-5.815,4.195-11.355,5.11-17.38c-2.27,3.475-5.085,6.805-6.095,10.86c1.295-3.625,3.285-8.26,2.865-11.84
		c0.095,0.795-2.005,1.825-2.46,2.405c-0.91,1.16-1.365,2.655-1.925,4.01c-0.01-0.955,0.33-1.84,0.335-2.79
		c-1.215,1.86-2.63,4.755-4.51,5.95C112.473,66.991,115.143,60.211,118.263,55.261z"/>
	<path fill="none" d="M163.643,90.721c5.105,6.485,14.75,9.96,22.695,10.05c0.3-5.115-1.565-9.955-5.125-13.68
		c5.87,2.07,12.695,3.28,19.08,2.395c2.025-7.755-5.175-16.455-12.515-18.585c8.84,0.565,16.37,7.46,24.975,2.345
		c-1.73-5.815-7.515-9.255-13.675-10.09c4.22,0.085,34.92,1.8,18.55-10.62c3.485,2.1,7.835,2.97,11.47,4.805
		c-0.93-2.215-1.33-5.85-3.305-8.6c6.44,3.885,13.855,18.525,23.025,12.305c5.33-3.615,4.915-11.415,1.185-14.675
		c2,1.82,5.13,2.545,7.065,4.175c0.26-0.145-0.21-2.37,0.23-2.325c9.92,2.315,21.04-14.05,16.63-22.235"/>
</g>
</svg>
