<?xml version="1.0" encoding="utf-8"?>
<!-- Generator: Adobe Illustrator 17.0.0, SVG Export Plug-In . SVG Version: 6.00 Build 0)  -->
<!DOCTYPE svg PUBLIC "-//W3C//DTD SVG 1.1//EN" "http://www.w3.org/Graphics/SVG/1.1/DTD/svg11.dtd">
<svg version="1.1" id="Capa_1" xmlns="http://www.w3.org/2000/svg" xmlns:xlink="http://www.w3.org/1999/xlink" x="0px" y="0px"
	 width="200px" height="200px" viewBox="0 0 200 200" enable-background="new 0 0 200 200" xml:space="preserve">
<g>
	<g>
		<path fill="#201915" d="M176.402,94.692c-1.331-5.788-3.685-11.421-7.922-18.675c-7.153-12.245-15.538-21.84-29.407-26.407
			c-16.948-5.575-36.833-0.941-53.615,3.092c-21.257,5.109-51.415,11.487-57.01,36.481c-4.109,18.347,0.724,38.129,6.657,55.511
			c6.167,18.072,16.751,30.544,35.36,35.891c30.979,8.901,71.248,12.507,95.377-14.945c11.477-13.059,12.6-31.065,12.394-47.651
			C178.108,108.223,177.936,101.359,176.402,94.692z"/>
		<path fill="#731D26" d="M58.882,37.333c-1.32,11.104-9.184,20.561-21.012,20.561c-5.013,0-9.929-1.862-13.673-5.202
			c-3.647-3.258-3.427-8.36-7.06-11.642c0.238-0.148,0.586,0.121,0.807-0.017c0.455-2.741-0.958-4.992-0.727-7.681
			c0.286-3.334,2.248-7.967,3.651-10.842c0.038,0.252,0.259,0.834,0.321,1.189c-0.5-2.813,10.384-8.15,12.725-8.567
			c11.604-2.068,25.728,8.319,25.125,20.292C59.009,36.061,58.957,36.699,58.882,37.333z"/>
		<path fill="#601A23" d="M52.587,36.354c-0.92,7.74-6.402,14.331-14.645,14.331c-3.496,0-6.919-1.296-9.529-3.627
			c-2.499-2.234-2.182-9.001-4.54-10.249c-1.968-4.495,2.827-6.891,2.224-10.787c0.028,0.176,0.179,0.583,0.224,0.827
			c-0.624-3.513,12.225-6.76,14.586-6.457c5.837,0.745,12.083,8.984,11.797,14.631C52.676,35.468,52.638,35.913,52.587,36.354z"/>
		<path fill="#40141D" d="M181.863,37.419c0.572,11.049-3.196,20.471-17.165,20.471c-11.38,0-20.605-9.225-20.605-20.609
			c0-10.377,10.704-22.946,16.548-31.051c6.481-8.994,7.846-8.291,13.066,2.386C177.029,15.421,181.332,27.125,181.863,37.419z"/>
		<path fill="#32141C" d="M174.871,41.859c0.445,9.808-2.482,18.172-13.331,18.172c-8.839,0-16.003-8.191-16.003-18.292
			c0-9.212,8.315-20.367,12.852-27.562c5.033-7.984,6.095-7.36,10.146,2.117C171.117,22.33,174.457,32.72,174.871,41.859z"/>
		<circle fill="#FFFFFF" cx="59.195" cy="72.4" r="9.749"/>
		<circle fill="#FFFFFF" cx="77.019" cy="66.14" r="9.749"/>
		<circle fill="#FFFFFF" cx="95.149" cy="63.634" r="9.749"/>
		<ellipse fill="#FFFFFF" cx="113.744" cy="62.651" rx="3.32" ry="9.749"/>
		<ellipse fill="#FFFFFF" cx="108.218" cy="61.11" rx="3.32" ry="9.749"/>
		<ellipse fill="#FFFFFF" cx="113.744" cy="175.507" rx="3.32" ry="9.749"/>
		<ellipse fill="#FFFFFF" cx="120.015" cy="175.507" rx="3.32" ry="9.749"/>
		<ellipse fill="#FFFFFF" cx="126.283" cy="175.507" rx="3.32" ry="9.749"/>
		<ellipse fill="#FFFFFF" cx="132.554" cy="175.507" rx="3.32" ry="9.749"/>
		<ellipse fill="#FFFFFF" cx="138.821" cy="175.507" rx="3.32" ry="9.749"/>
		<ellipse fill="#FFFFFF" cx="145.089" cy="171.146" rx="3.32" ry="9.749"/>
		<ellipse fill="#FFFFFF" cx="149.36" cy="171.146" rx="3.32" ry="9.749"/>
		<ellipse fill="#FFFFFF" cx="153.693" cy="169.026" rx="3.32" ry="9.749"/>
		<ellipse fill="#FFFFFF" cx="158.268" cy="167.274" rx="3.32" ry="9.749"/>
		<ellipse fill="#FFFFFF" cx="163.005" cy="161.396" rx="3.32" ry="9.749"/>
		<ellipse fill="#FFFFFF" cx="118.457" cy="61.11" rx="3.32" ry="9.749"/>
		<ellipse fill="#FFFFFF" cx="123.335" cy="62.651" rx="3.32" ry="9.749"/>
		<ellipse fill="#FFFFFF" cx="128.206" cy="62.651" rx="3.32" ry="9.749"/>
		<ellipse fill="#FFFFFF" cx="134.85" cy="64.664" rx="3.32" ry="9.749"/>
		<ellipse fill="#FFFFFF" cx="139.607" cy="64.664" rx="3.32" ry="9.749"/>
		<ellipse fill="#FFFFFF" cx="146.25" cy="67.45" rx="3.32" ry="9.749"/>
		<ellipse fill="#FFFFFF" cx="152.68" cy="69.78" rx="3.32" ry="9.749"/>
		<ellipse fill="#FFFFFF" cx="157.013" cy="75.889" rx="3.32" ry="9.749"/>
		<ellipse fill="#FFFFFF" cx="161.588" cy="79.533" rx="3.32" ry="9.749"/>
		<circle fill="#FFFFFF" cx="67.069" cy="167.598" r="9.749"/>
		<circle fill="#FFFFFF" cx="85.737" cy="171.146" r="9.749"/>
		<circle fill="#FFFFFF" cx="103.802" cy="173.59" r="9.749"/>
		<path fill="#731D26" d="M125.149,55.132c1.065-1.551,1.931-3.413,2.548-5.657c1.693-6.15,1.744-15.534-0.993-21.478
			c-5.547-12.052-13.845-10.339-25.556-10.242c-12.494,0.107-25.304,2.403-37.015,6.74c-34.15,12.649-51.112,46.954-51.108,82.329
			c0,18.103,2.641,36.943,12.804,52.294c10.911,16.479,29.824,27.214,48.378,32.847c11.194,3.399,50.505,15.907,44.948-7.446
			c-2.137-8.988-7.315-8.084-15.358-8.867c-20.181-1.965-45.837-5.082-57.338-24.37c-11.084-18.585-8.719-49.84,2.665-67.856
			c8.819-13.955,28.093-18.492,43.221-20.043C103.774,62.21,118.447,64.875,125.149,55.132z"/>
		<path fill="#601A23" d="M26.589,164.916c0.017-1.234,0.086-2.506,0.121-3.73c2.806,6.199,7.333,11.146,12.914,15.424
			c0.514-0.576-0.338-1.734,0.134-2.344c1.089,1.755,2.827,4.123,3.627,6.143c0.086-0.31,0.079-0.614-0.028-0.914
			c1.538,4.195,3.213,4.688,6.212,6.402c-0.138-2.351,0.834-5.057,0.441-7.505c1.11,2.003,3.241,4.161,4.251,6.64
			c0.059-0.483-0.403-2.313-0.517-2.834c1.238,1.658,3.268,3.692,4.571,5.612c-0.059-0.065-1.982-2.427-1.886-2.379
			c2.951,2.561,12.7,7.322,16.879,6.505c0.41-0.079-1.434-1.744-1.424-1.662c1.31,0.662,3.244,1.513,4.54,2.168
			c-1.503-0.5-2.758-0.662-4.547-0.934c3.251,1.334,6.323,3.099,9.432,4.816c-0.469,0.293-3.127,0.003-3.796-0.041
			c0.338,0.176,2.872,1.389,2.854,1.655c0.293-1.806,0.103-1.003,2.113-1.286c-0.431-1.32-1.038-2.162-0.848-3.682
			c2.851,2.055,6.016,2.037,8.901,3.265c-1.007-2.396-0.845-5.781-1.503-7.64c1.893,1.941,4.585,3.606,6.281,5.347
			c-1.245-1.165-2.441-1.896-3.799-2.875c3.134,5.064,7.995,9.605,14.372,8.85c0.2-0.903-0.128-1.772,0.059-2.679
			c2.848,1.51,5.685,0.762,8.198,1.51c-2.503-4.451,3.758-9.784,0.745-15.748c-2.375-4.699-7.943-7.726-13.073-8.008
			c-1.355-0.076-2.723-0.165-4.096-0.417c-5.333-0.972-9.946,1.382-15.276,0.072c-11.046-2.717-27.497-9.491-34.433-18.944
			c-4.223-5.754-5.199-12.714-8.308-19.009c-3.544-7.178-5.588-12.001-4.93-20.361c1.379-17.537,7.66-34.488,22.081-45.41
			c3.568,2.644,13.407-2.979,17.537-4.347c6.192-2.051,12.159-2.965,18.544-3.927c1.02-0.155,5.774-2.093,6.426-1.889
			c1.751,0.545,0.989,2.758,2.12,3.275c6.047,2.779,7.936-5.409,13.045-6.567c1.951-0.441,2.41,2.658,4.747,1.917
			c3.303-1.051,5.84-9.567,6.795-12.838c1.658-5.692,1.114-13.152-1.372-18.551c-0.462-1-10.701-13.393-11.935-8.246
			c0.169-0.703-0.031-1.407,0.041-2.048c-1.324-0.007-14.617-0.769-14.624-0.738c0.059-0.317,0.583-0.534,0.614-0.872
			c-1.582,0.51-3.606,0.61-5.199,1.127c0.221-0.738,0.2-1.634,0.431-2.334c-3.127,1.272-9.415,3.896-12.828,3.951
			c-0.083-0.231,0.507-0.627,0.503-0.862c-2.41,1-4.716,2.541-6.698,4.302c0.369-0.803,0.407-1.81,0.662-2.537
			c-4.709,2.655-14.203,1.431-17.065,6.75c-0.003-0.758-0.365-1.679-0.403-2.182c-1.52,0.941-3.13,0.548-4.533,0.834
			c-0.086-0.396,0.034-1.176,0.021-1.544c0.079,1.806-9.474,8.505-11.001,9.76c-1.713,1.407-3.475,2.713-5.213,4.04
			c-1.455,1.11-2.892,2.237-4.275,3.447c-6.292,5.526-13.538,11.38-16.134,19.692c-1.21,3.875-1.458,7.97-1.603,12.001
			c-0.121,3.406,1.513,8.343,0.09,11.418c-1.193,2.575-3.282,3.747-4.516,6.45c-2.144,4.706-1.662,12.052-1.672,17.154
			c0.003-1.069-0.103-2.193,0.007-3.258c0,3.999,0,7.998,0,11.976c0-1.982,0.007,0.493,0.007,1.12c0.01,2.22-0.048,4.447-0.059,6.66
			c-0.007,1.989-0.779,6.726,2.575,5.792c-0.01,2.651-0.024,5.216,0.845,7.736c0.448-0.259,1.393-0.252,1.827-0.469
			c1.217,2.041,1.179,3.675,1.227,6.023c2.265-0.176,3.472,3.447,3.723,5.526c0.172,0.162,0.427-0.09,0.61,0.045
			c0.059,1.148,0.014,1.358-0.758,2.172c-0.221,0.214-0.362,0.917-1.065,1.32c4.33-2.461,4.651,5.216,5.468,6.833
			C24.735,159.962,26.617,162.955,26.589,164.916z"/>
		<path fill="#32141C" d="M126.952,19.965c-7.957-1.941-18.334-6.595-25.456-0.641c-6.261,5.23-7.698,15.193-6.609,22.832
			c1.779,12.494,8.536,18.975,21.185,19.588c10.394,0.503,22.581,2.148,31.796,7.057c6.033,3.213,17.351,12.221,24.487,7.619
			c10.26-6.619,0.117-27.197-5.25-33.651C157.203,30.862,141.724,23.571,126.952,19.965z"/>
		<path fill="#32141C" d="M129.11,19.968c-5.064-1.234-21.188-6.126-25.621-1.962c-3.148,2.958-1.272,10.463-0.49,14.093
			c1.427,6.612-0.683,13.593,0.383,20.264c1.538,9.622,6.274,8.967,14.841,9.38c34.333,1.665,55.635,19.519,55.635,55.794
			c0,14.752-5.488,39.784-18.806,48.061c-6.643,4.127-13.945,7.088-21.591,8.784c-7.291,1.617-17.01-1.424-23.674,1.251
			c-6.309,2.534-8.526,16.079-3.751,20.605c6.012,5.702,27.549-0.59,34.557-2.617c35.019-10.129,50.174-55.073,50.174-87.638
			C190.771,63.006,170.893,30.159,129.11,19.968z"/>
		<path fill="#731D26" d="M109.083,63.447c3.492-1.548,4.468-6.764,8.233-7.619c1.951-0.441,2.41,2.658,4.747,1.917
			c3.303-1.051,5.84-9.567,6.795-12.838c1.658-5.692,1.114-13.152-1.372-18.551c-0.462-1-10.701-13.393-11.935-8.246
			c0.169-0.703-0.031-1.407,0.041-2.048c-1.324-0.007-14.617-0.769-14.624-0.738c0.059-0.317,0.583-0.534,0.614-0.872
			c-1.582,0.51-3.606,0.61-5.199,1.127c0.221-0.738,0.2-1.634,0.431-2.334c-3.127,1.272-9.415,3.896-12.828,3.951
			c-0.083-0.231,0.507-0.627,0.503-0.862c-2.41,1-4.716,2.541-6.698,4.302c0.369-0.803,0.407-1.81,0.662-2.537
			c-4.709,2.655-14.204,1.431-17.065,6.75c-0.003-0.758-0.365-1.679-0.403-2.182c-1.52,0.941-3.13,0.548-4.533,0.834
			c-0.086-0.396,0.034-1.176,0.021-1.544c-7.188,6.388-13.373,13.7-20.488,20.064c-0.041-0.465-0.107-0.931-0.197-1.389
			c-0.996,0.51-1.855,1.138-2.741,1.875c-0.21-0.121-0.062-0.948-0.269-0.889c-3.072,3.416-3.551,8.084-6.25,11.67
			c-3.844,5.102-6.219,6.378-7.15,13.062c-0.396,2.844-0.445,5.74-0.883,8.57c-0.121,0.793-1.403,4.151-1.396,4.275
			c0.138,2.917,2.234,6.454,1.386,9.291c-0.924,3.089-3.792,3.12-4.02,7.995c-0.424-0.314-1.051-0.552-1.4-0.803
			c-1.844,5.723-0.91,13.028-0.91,18.958c0.003-2.355,0.038,2.772,0.014,3.327c-0.121,2.613-0.593,5.088-0.6,7.708
			c-0.114-1.393,0.321-2.496,1.024-3.634c0.934,2.851,2.786,5.557,3.223,8.484c0.248,0.086,0.548-0.076,0.803-0.024
			c0.365,2.913,2.806,5.409,3.544,8.357c1.662,6.657,4.12,12.269,6.426,18.833c-0.079-0.272-0.048-0.531,0.09-0.776
			c0.707,1.7,2.727,4.554,2.703,6.35c0.017-1.234,0.086-2.506,0.121-3.73c2.806,6.199,7.333,11.146,12.914,15.424
			c0.514-0.576-0.338-1.734,0.134-2.344c1.089,1.755,2.827,4.123,3.627,6.143c0.086-0.31,0.079-0.614-0.028-0.914
			c1.541,4.195,3.213,4.688,6.212,6.402c-0.138-2.351,0.834-5.057,0.441-7.505c1.11,2.003,3.241,4.161,4.251,6.64
			c0.059-0.483-0.403-2.313-0.517-2.834c1.238,1.658,3.268,3.692,4.571,5.612c-0.059-0.065-1.982-2.427-1.886-2.379
			c2.951,2.565,12.7,7.322,16.879,6.505c0.41-0.079-1.434-1.744-1.424-1.662c1.31,0.662,3.244,1.513,4.54,2.168
			c-1.503-0.5-2.758-0.662-4.547-0.934c3.251,1.334,6.323,3.099,9.432,4.816c-0.469,0.293-3.127,0.003-3.796-0.041
			c0.338,0.176,2.872,1.389,2.854,1.655c0.293-1.806,0.103-1.003,2.113-1.286c-0.431-1.32-1.038-2.162-0.848-3.682
			c2.52,1.813,6.95,4.023,9.791,3.416c-0.238-0.907-3.237-4.864-3.196-5.285c-0.469,5.081,17.575,9.177,17.654,8.815
			c0.2-0.903-0.128-1.772,0.059-2.675c2.258,1.196,5.475,1.269,7.984,1.375c-2.144-3.641,2.22-7.295,2.11-11.514
			c-0.097-3.689-1.979-8.284-5.281-10.204c-2.844-1.651-5.857-1.737-8.929-1.906c-1.362-0.076-2.734-0.165-4.113-0.417
			c-5.333-0.972-9.946,1.382-15.276,0.072c-7.664-1.882-15.689-4.982-22.615-8.826c-4.547-2.523-8.729-5.912-11.821-10.122
			c-4.358-5.947-5.768-12.48-7.684-19.426c-3.847-13.948-3.409-28.597,2.068-41.973c3.803-9.284,9.291-17.317,18.851-20.926
			c4.747-1.793,9.598-3.592,14.424-5.171c5.316-1.737,8.691-2.375,14.283-2.134c5.854,0.252,26.37,1.807,25.797-8.019"/>
		<path fill="#2A131A" d="M171.02,47.248c-5.295-6.392-20.533-15.186-15.255-23.56c5.033-7.981,6.095-7.357,10.146,2.117
			C168.542,31.962,172.496,40.456,171.02,47.248z"/>
	</g>
	<rect fill="none" width="200" height="200"/>
</g>
<line fill="none" stroke="#FFFFFF" stroke-miterlimit="10" x1="0" y1="100" x2="200" y2="100"/>
<line fill="none" stroke="#FFFFFF" stroke-miterlimit="10" x1="100" y1="0" x2="100" y2="200"/>
<ellipse fill="#201915" cx="100" cy="117.064" rx="68.591" ry="58.638"/>
<path fill="#FFFFFF" d="M152.47,83.497c-3.833,2.212-10.837,2.816-16.928,1.036c-11.401-3.332-18.9-8.288-31.288-8.14
	c-17.479,0.209-33.436,0.275-48.877,9.362c-10.37,6.103-28.627,9.98-12.793-6.471c13.969-14.514,37.902-20.76,57.416-20.76
	c16.511,0,34.144,4.405,48.386,12.999C157.058,76.757,156.652,81.084,152.47,83.497z"/>
<path fill="#FFFFFF" d="M150.466,149.616c-3.697-2.212-10.454-2.816-16.328-1.036c-10.997,3.332-18.231,8.288-30.18,8.14
	c-16.861-0.209-32.252-0.275-47.146-9.362c-10.003-6.103-27.613-9.98-12.34,6.471c13.475,14.514,36.56,20.76,55.383,20.76
	c15.927,0,32.936-4.405,46.673-12.999C154.892,156.356,154.499,152.029,150.466,149.616z"/>
</svg>
