<?xml version="1.0" encoding="utf-8"?>
<!-- Generator: Adobe Illustrator 17.0.0, SVG Export Plug-In . SVG Version: 6.00 Build 0)  -->
<!DOCTYPE svg PUBLIC "-//W3C//DTD SVG 1.1//EN" "http://www.w3.org/Graphics/SVG/1.1/DTD/svg11.dtd">
<svg version="1.1" id="Capa_1" xmlns="http://www.w3.org/2000/svg" xmlns:xlink="http://www.w3.org/1999/xlink" x="0px" y="0px"
	 width="400px" height="200px" viewBox="0 0 400 200" enable-background="new 0 0 400 200" xml:space="preserve">
<path fill="#657725" d="M397.861,82.654c-26.23,9.883-50.36-0.544-65.661-17.893c0.429-0.486,0.998-0.734,1.706-0.742
	c-12.91-24.838-24.381-41.762-55.28-48.362c-34.099-7.283-56.929-19.71-93.372-14.355c-40.174,5.904-82.257,17.974-117.635,35.48
	C42.713,49.106,24.935,75.166,0,84.643v0.642c22.961,16.434,40.909,38.353,60.275,57.79c26.152,26.247,59.046,42.526,98.055,52.598
	c53.391,13.785,107.569-7.124,147.291-37.882c20.471-15.852,30.356-39.772,49.268-55.022c11.129-8.975,31.162-11.305,45.112-15.328
	C399.746,85.771,399.029,84.032,397.861,82.654z"/>
</svg>
